HIERARCHY
ROOT ui
{
	 OFFSET 0 0 0
	 CHANNELS 3 XPosition YPosition Z Position
	 EndSite
	 {
	 OFFSET 0 -1 0
	 }
}
ROOT li
{
	 OFFSET 0 0 0
	 CHANNELS 3 XPosition YPosition Z Position
	 EndSite
	 {
	 OFFSET 0 -1 0
	 }
}
ROOT ul
{
	 OFFSET 0 0 0
	 CHANNELS 3 XPosition YPosition Z Position
	 EndSite
	 {
	 OFFSET 0 -1 0
	 }
}
ROOT ll
{
	 OFFSET 0 0 0
	 CHANNELS 3 XPosition YPosition Z Position
	 EndSite
	 {
	 OFFSET 0 -1 0
	 }
}
ROOT tt
{
	 OFFSET 0 0 0
	 CHANNELS 3 XPosition YPosition Z Position
	 EndSite
	 {
	 OFFSET 0 -1 0
	 }
}
ROOT tb
{
	 OFFSET 0 0 0
	 CHANNELS 3 XPosition YPosition Z Position
	 EndSite
	 {
	 OFFSET 0 -1 0
	 }
}
ROOT td
{
	 OFFSET 0 0 0
	 CHANNELS 3 XPosition YPosition Z Position
	 EndSite
	 {
	 OFFSET 0 -1 0
	 }
}
ROOT v
{
	 OFFSET 0 0 0
	 CHANNELS 3 XPosition YPosition Z Position
	 EndSite
	 {
	 OFFSET 0 -1 0
	 }
}
ROOT bn
{
	 OFFSET 0 0 0
	 CHANNELS 3 XPosition YPosition Z Position
	 EndSite
	 {
	 OFFSET 0 -1 0
	 }
}
MOTION
Frames: 16
Frame Time: 0.002
0.003835040092468262	0.0015259740352630616	0		0.4756023864746094	-2.5620263671875	0		-0.9573396606445312	0.25451441955566406	0		-0.55199755859375	-3.13433349609375	0		2.519412841796875	-0.8382445068359375	0		3.942119384765625	-0.346452880859375	0		5.16690478515625	-0.10941856384277343	0		5.99974609375	0.4851131591796875	0		-0.23316094970703125	5.87261376953125	0		
0.006835859775543213	0.004730430126190186	0		0.5241961669921875	-2.574392822265625	0		-0.8874010009765625	0.25003526306152346	0		-0.46566506958007814	-3.16504296875	0		2.539049072265625	-0.8604610595703125	0		3.93588232421875	-0.3614992370605469	0		5.18767578125	-0.1258860855102539	0		5.9827685546875	0.48600653076171874	0		-0.23464125061035157	5.8748974609375	0		
0.0037294490337371825	0.002052412986755371	0		0.5178015747070313	-2.581084228515625	0		-0.8974375	0.2515220489501953	0		-0.47235861206054686	-3.19264013671875	0		2.535327880859375	-0.90937353515625	0		3.920568359375	-0.3794056396484375	0		5.17351171875	-0.1329222412109375	0		5.99054443359375	0.4686412658691406	0		-0.11503120422363282	5.88582568359375	0		
-4.2501699924468993E-4	-0.001566182017326355	0		0.5123756103515625	-2.586740478515625	0		-0.9066144409179687	0.24404879760742187	0		-0.44312646484375	-3.22260888671875	0		2.526817138671875	-0.93618701171875	0		3.939281982421875	-0.39166903686523435	0		5.18702734375	-0.16424627685546875	0		5.99048095703125	0.46840032958984373	0		-0.11457379150390624	5.88617138671875	0		
-5.672950148582458E-4	-0.001185768961906433	0		0.49361700439453127	-2.617195556640625	0		-0.9676931762695312	0.2482366943359375	0		-0.4767808837890625	-3.238794921875	0		2.544216796875	-0.9672630615234376	0		3.9198671875	-0.4114471740722656	0		5.18665673828125	-0.18237025451660155	0		5.98238525390625	0.4682911376953125	0		-0.23228726196289062	5.87495556640625	0		
-7.418379783630371E-4	-7.610689997673035E-4	0		0.55499072265625	-2.633555419921875	0		-0.8977886962890625	0.2529237060546875	0		-0.4086114196777344	-3.26714208984375	0		2.529722412109375	-0.985920654296875	0		3.944757568359375	-0.4027056884765625	0		5.17646484375	-0.18233642578125	0		5.9914462890625	0.4840196838378906	0		-0.23188430786132813	5.87540283203125	0		
0.0031007189750671387	0.003658451080322266	0		0.5255286254882813	-2.632794677734375	0		-0.8979688110351562	0.253479736328125	0		-0.40738983154296876	-3.287656494140625	0		2.5260849609375	-1.0136638793945312	0		3.94110546875	-0.43658770751953124	0		5.17217041015625	-0.18832963562011718	0		5.99009716796875	0.4679110412597656	0		-0.23151129150390626	5.8758935546875	0		
-0.0011810050010681152	2.1624399721622466E-4	0		0.546927734375	-2.6416015625	0		-0.8932389526367187	0.2490166015625	0		-0.42213653564453124	-3.30293701171875	0		2.526401611328125	-1.0424105224609375	0		3.9479130859375	-0.42954733276367185	0		5.173724609375	-0.2043470916748047	0		5.9950048828125	0.47577587890625	0		-0.09690463256835938	5.89780419921875	0		
-0.0014425139427185058	7.659839987754822E-4	0		0.5502192993164062	-2.657151611328125	0		-0.9034638061523438	0.25077310180664064	0		-0.2891369323730469	-3.33797705078125	0		2.546783203125	-1.0633558349609376	0		3.93251416015625	-0.4371905517578125	0		5.16528564453125	-0.2171920471191406	0		5.9816923828125	0.4679132080078125	0		-0.0966041717529297	5.89836279296875	0		
-0.0017299480438232422	0.0013540199995040894	0		0.547661865234375	-2.65858984375	0		-0.8937412109375	0.25032179260253906	0		-0.4058836364746094	-3.3489375	0		2.505032470703125	-1.0924976806640625	0		3.915126220703125	-0.4417569274902344	0		5.1657568359375	-0.23509225463867187	0		5.977337890625	0.4589982604980469	0		-0.09535910034179687	5.897947265625	0		
0.0020076069831848143	0.005928369998931884	0		0.5300396118164062	-2.66380419921875	0		-0.8889814453125	0.25496353149414064	0		-0.2638147888183594	-3.37504345703125	0		2.525472900390625	-1.1043564453125	0		3.9385751953125	-0.4577785034179688	0		5.1613134765625	-0.24387997436523437	0		5.98626416015625	0.474975341796875	0		-0.21232005310058594	5.88502783203125	0		
0.010561187744140626	-0.0025258800983428953	0		0.5643096923828125	-2.676627685546875	0		-0.8892935180664062	0.2556979370117187	0		-0.26270343017578124	-3.395386474609375	0		2.513857177734375	-1.1187801513671876	0		3.918439453125	-0.4382153930664062	0		5.1550703125	-0.2345965118408203	0		5.9818720703125	0.46716363525390625	0		-0.21311862182617186	5.8877158203125	0		
-0.002730907917022705	0.0033231189250946046	0		0.5487545166015625	-2.673800048828125	0		-0.9037767944335937	0.24463673400878908	0		-0.27247015380859374	-3.4045634765625	0		2.517080810546875	-1.14435302734375	0		3.912746337890625	-0.46179412841796874	0		5.16058203125	-0.24341867065429687	0		5.9764560546875	0.4594095153808594	0		-0.24803733825683594	5.88385986328125	0		
-0.003107419967651367	0.004037008762359619	0		0.5519568481445313	-2.689180419921875	0		-0.9041336059570313	0.24542433166503907	0		-0.2812509765625	-3.413725830078125	0		2.512333251953125	-1.1657930908203125	0		3.912331787109375	-0.46140054321289065	0		5.16018505859375	-0.24312716674804688	0		5.97611669921875	0.45963427734375	0		-0.07960550689697266	5.90947216796875	0		
-0.010593278884887695	-0.0021374800205230713	0		0.5592196044921875	-2.6985888671875	0		-0.9045121459960938	0.24623135375976563	0		-0.26322384643554686	-3.43720703125	0		2.4956669921875	-1.17905078125	0		3.905758544921875	-0.47189572143554687	0		5.1546669921875	-0.25073350524902344	0		5.98475439453125	0.45978530883789065	0		-0.21183213806152343	5.88789208984375	0		
-0.003922435998916626	0.005526675224304199	0		0.5684832153320313	-2.707004638671875	0		-0.8839259033203125	0.24578456115722655	0		-0.2520159454345703	-3.44558642578125	0		2.49212255859375	-1.1814464111328125	0		3.897573974609375	-0.4503355102539062	0		5.15423046875	-0.2503676300048828	0		5.98437109375	0.46008877563476563	0		-0.07852450561523437	5.9099609375	0		
